<svg height="512pt" viewBox="0 -41 512.00006 512" width="512pt" xmlns="http://www.w3.org/2000/svg" xmlns:xlink="http://www.w3.org/1999/xlink"><linearGradient id="a" gradientTransform="matrix(.462035 0 0 -.462035 -.000215 458.230856)" gradientUnits="userSpaceOnUse" x1="134.3291" x2="964.9241" y1="8.6149" y2="839.2098"><stop offset="0" stop-color="#41dfd0"/><stop offset="1" stop-color="#ee83ef"/></linearGradient><path d="m32.628906 424.765625c1.929688 2.28125 4.761719 3.601563 7.75 3.609375l375.011719.761719c2.492187 0 4.898437-.914063 6.761719-2.574219 36.996094-32.984375 64.355468-75.386719 79.164062-122.6875 19.582032-62.636719 12.023438-130.609375-20.839844-187.417969-32.847656-57.109375-88.421874-97.566406-152.867187-111.273437-116.917969-25.632813-237.410156 46.148437-274.21875 163.472656l-1.730469 5.503906c-4.234375.191406-7.90625 2.988282-9.214844 7.019532l-41.957031 132.226562c-1.507812 4.679688.570313 9.761719 4.921875 12.042969-6.09375 35.503906 3.878906 71.878906 27.21875 99.316406zm26.945313-230.332031h115.6875c20.28125 0 40.183593-5.511719 57.570312-15.949219l1.496094-.894531c-3.183594 28.960937 14.550781 56.136718 42.34375 64.882812 2.878906.890625 5.820313 1.570313 8.796875 2.035156l-50.246094 41.113282c-16.367187 13.363281-36.84375 20.671875-57.976562 20.6875h-150.535156c-.589844-.78125-1.292969-1.464844-2.085938-2.035156zm196.601562-22.378906c6.726563-21.4375 29.558594-33.367188 51-26.640626 21.4375 6.726563 33.367188 29.558594 26.640625 51-6.726562 21.4375-29.558594 33.367188-50.996094 26.640626-10.300781-3.230469-18.890624-10.421876-23.886718-19.984376-5.019532-9.550781-6.011719-20.710937-2.757813-30.996093zm-230.300781 154.605468h151.433594c25.832031-.011718 50.871094-8.945312 70.882812-25.285156l83.78125-68.554688c.125-.101562.183594-.253906.296875-.367187 26.667969-20.535156 31.644531-58.800781 11.109375-85.472656s-58.804687-31.644531-85.476562-11.109375c-3.800782 2.929687-7.246094 6.296875-10.257813 10.035156l-25.289062 15.132812c-14.222657 8.542969-30.5 13.054688-47.09375 13.050782h-102.222657c33.933594-106.964844 143.621094-172.386719 250.21875-149.042969 58.855469 12.515625 109.617188 49.457031 139.621094 101.613281 30.011719 51.867188 36.921875 113.9375 19.050782 171.132813-13.328126 42.539062-37.621094 80.820312-70.4375 110.992187l-366.230469-.742187c-17.898438-23.0625-24.964844-52.726563-19.386719-81.382813zm354.820312-225.609375c-4.699218-3.082031-6.007812-9.386719-2.929687-14.085937 3.078125-4.695313 9.386719-6.007813 14.082031-2.929688.171875.113282.339844.230469.503906.351563 38.660157 26.9375 65.375 67.8125 74.523438 114.03125 1.097656 5.507812-2.46875 10.859375-7.972656 11.964843-.667969.136719-1.351563.207032-2.035156.203126-4.828126-.003907-8.992188-3.40625-9.957032-8.136719-8.125-41.09375-31.859375-77.4375-66.214844-101.398438zm87.199219 150.769531c-.667969 16.078126-3.449219 32.003907-8.269531 47.359376-1.683594 5.359374-7.398438 8.339843-12.761719 6.65625-5.359375-1.6875-8.339843-7.398438-6.65625-12.761719 4.277344-13.648438 6.746094-27.796875 7.34375-42.089844 0-5.398437 4.375-9.773437 9.773438-9.777344.269531 0 .535156.011719.804687.035157 5.613282.21875 9.984375 4.949218 9.765625 10.5625zm-190.9375-58.140624c-2.519531-4.777344-3.015625-10.363282-1.382812-15.511719 3.367187-10.71875 14.789062-16.675781 25.503906-13.308594 10.71875 3.371094 16.679687 14.789063 13.308594 25.507813-3.367188 10.71875-14.785157 16.675781-25.503907 13.308593-5.140624-1.617187-9.429687-5.203125-11.925781-9.976562zm0 0" fill="url(#a)"/></svg>