<svg width="512" height="458" viewBox="0 0 512 458" fill="none" xmlns="http://www.w3.org/2000/svg">
<path d="M463.375 156.726C427.593 119.991 370.586 98.962 292.355 93.632V18.83C292.355 10.836 288.642 5.222 281.219 1.984C273.416 -1.246 266.753 0.0820003 261.234 5.983L115.06 152.161C111.442 155.782 109.636 160.063 109.636 165.011C109.636 169.96 111.443 174.24 115.06 177.858L261.238 324.035C264.67 327.652 268.948 329.46 274.088 329.46C276.371 329.46 278.749 328.984 281.224 328.033C288.647 324.795 292.363 319.186 292.363 311.188V239.525C323.005 242 348.46 246.996 368.739 254.514C389.009 262.033 405.233 272.548 417.416 286.063C445.778 317.468 455.867 371.234 447.682 447.374C447.306 452.325 449.489 455.56 454.249 457.082C454.82 457.274 455.676 457.366 456.818 457.366C460.624 457.366 463.286 455.748 464.812 452.513L470.521 441.093C473.183 435.762 477.037 427.148 482.081 415.252C487.122 403.351 491.697 391.458 495.79 379.56C499.883 367.667 503.545 354.534 506.782 340.164C510.016 325.788 511.635 313.085 511.635 302.048C511.63 238.094 495.546 189.657 463.375 156.726Z" fill="#A55EEA"/>
<path d="M63.953 165.011C63.953 160.059 65.762 155.778 69.377 152.161L182.725 38.531V18.83C182.725 10.836 179.01 5.222 171.587 1.984C163.783 -1.246 157.122 0.0820003 151.604 5.983L5.424 152.161C1.809 155.781 0 160.062 0 165.011C0 169.96 1.809 174.24 5.424 177.858L151.604 324.035C155.029 327.652 159.312 329.46 164.454 329.46C166.738 329.46 169.117 328.984 171.591 328.033C179.014 324.795 182.729 319.186 182.729 311.188V291.203L69.377 177.857C65.762 174.24 63.953 169.962 63.953 165.011Z" fill="#A55EEA"/>
</svg>
